<svg width="23" height="27" viewBox="0 0 23 27" fill="none" xmlns="http://www.w3.org/2000/svg">
<path d="M11.5 13.1429C15.1297 13.1429 18.0714 10.2011 18.0714 6.57143C18.0714 2.94174 15.1297 0 11.5 0C7.87031 0 4.92857 2.94174 4.92857 6.57143C4.92857 10.2011 7.87031 13.1429 11.5 13.1429ZM16.1 14.7857H15.2426C14.1029 15.3094 12.8348 15.6071 11.5 15.6071C10.1652 15.6071 8.90223 15.3094 7.75737 14.7857H6.9C3.09063 14.7857 0 17.8763 0 21.6857V23.8214C0 25.1819 1.10379 26.2857 2.46429 26.2857H20.5357C21.8962 26.2857 23 25.1819 23 23.8214V21.6857C23 17.8763 19.9094 14.7857 16.1 14.7857Z" fill="white"/>
</svg>
